<?xml version="1.0" standalone="no"?>
<!DOCTYPE svg PUBLIC "-//W3C//DTD SVG 20010904//EN"
 "http://www.w3.org/TR/2001/REC-SVG-20010904/DTD/svg10.dtd">
<svg version="1.0" xmlns="http://www.w3.org/2000/svg"
 width="399.000000pt" height="89.000000pt" viewBox="0 0 399.000000 89.000000"
 preserveAspectRatio="xMidYMid meet">

<g transform="translate(0.000000,89.000000) scale(0.100000,-0.100000)"
fill="#000000" stroke="none">
<path d="M1380 680 l0 -121 -28 21 c-59 44 -156 47 -228 6 -126 -70 -149 -320
-40 -429 75 -75 205 -76 279 -2 l27 28 0 -37 0 -36 55 0 55 0 0 345 0 345 -60
0 -60 0 0 -120z m-40 -202 c61 -66 60 -184 -2 -247 -25 -26 -38 -31 -75 -31
-57 0 -95 27 -117 80 -29 73 -18 146 29 196 29 30 38 34 84 34 46 0 56 -4 81
-32z"/>
<path d="M3490 455 l0 -345 60 0 60 0 0 135 c0 152 11 194 63 235 24 19 43 25
80 25 77 0 85 -22 86 -237 l1 -158 56 0 55 0 -3 208 c-2 173 -6 211 -20 230
-58 84 -198 90 -279 13 l-39 -38 0 139 0 138 -60 0 -60 0 0 -345z"/>
<path d="M2180 670 c0 -72 -1 -74 -47 -73 -9 1 -13 -15 -13 -48 0 -47 1 -49
29 -49 l29 0 4 -143 c3 -138 4 -145 30 -179 41 -53 94 -73 186 -69 20 1 22 6
22 51 0 47 -2 50 -26 50 -29 0 -64 16 -81 39 -8 10 -12 57 -13 134 l0 117 56
0 55 0 -3 48 -3 47 -52 3 -53 3 0 70 0 69 -60 0 -60 0 0 -70z"/>
<path d="M136 682 c-20 -33 -23 -86 -9 -137 27 -93 104 -158 204 -170 55 -7
69 6 69 68 0 71 -18 121 -59 166 -42 44 -71 62 -115 67 -17 2 -43 6 -58 9 -15
2 -29 1 -32 -3z"/>
<path d="M679 606 c-98 -26 -157 -85 -180 -180 -31 -126 32 -255 151 -308 62
-27 175 -22 244 12 26 14 50 28 52 32 3 4 -4 25 -16 47 l-20 40 -51 -26 c-42
-20 -62 -24 -106 -21 -63 5 -98 28 -126 82 -17 32 -18 39 -6 47 8 5 85 8 172
7 145 -3 158 -2 163 15 8 24 -4 103 -21 143 -38 91 -150 139 -256 110z m112
-96 c19 -10 49 -59 49 -80 0 -6 -40 -10 -110 -10 -83 0 -110 3 -110 13 0 15
28 57 50 74 19 15 94 17 121 3z"/>
<path d="M2645 610 c-95 -15 -164 -79 -189 -177 -24 -94 -3 -189 56 -255 66
-73 203 -98 312 -58 75 29 85 42 61 88 -11 20 -20 38 -20 39 0 1 -23 -9 -50
-22 -90 -44 -181 -28 -226 42 -10 15 -19 38 -19 50 0 22 2 22 158 22 86 0 163
0 171 1 11 0 13 15 9 71 -4 57 -11 79 -35 112 -49 70 -132 102 -228 87z m118
-121 c15 -16 27 -38 27 -49 0 -16 -7 -20 -37 -21 -123 -2 -174 -1 -179 4 -12
12 33 73 66 90 45 22 87 14 123 -24z"/>
<path d="M3167 609 c-129 -31 -200 -120 -201 -253 0 -83 19 -131 75 -187 73
-73 220 -91 322 -39 68 34 71 41 47 89 l-22 40 -39 -26 c-51 -34 -132 -42
-177 -19 -43 22 -83 78 -89 124 -7 54 25 125 69 152 45 27 131 27 176 0 37
-23 46 -20 74 28 17 29 17 30 -6 45 -65 43 -162 63 -229 46z"/>
<path d="M1599 599 c-7 -4 -9 -77 -7 -200 3 -221 10 -244 78 -279 77 -39 187
-17 243 49 l27 33 0 -46 0 -46 55 0 55 0 -2 248 -3 247 -55 0 -55 0 -5 -150
c-5 -154 -10 -173 -53 -213 -42 -39 -135 -42 -153 -5 -5 10 -11 97 -14 193
l-5 175 -48 0 c-27 0 -53 -2 -58 -6z"/>
</g>
</svg>
